<svg version="1.1" id="Layer_1" xmlns="http://www.w3.org/2000/svg" xmlns:xlink="http://www.w3.org/1999/xlink" x="0px" y="0px"
	 width="100%" viewBox="0 0 280 222" enable-background="new 0 0 280 222" xml:space="preserve">
<path fill="#FFFFFF" opacity="1.000000" stroke="none" 
	d="
M194.000000,223.000000 
	C129.333344,223.000000 65.166679,223.000000 1.000017,223.000000 
	C1.000011,149.000015 1.000011,75.000031 1.000006,1.000037 
	C94.333305,1.000025 187.666611,1.000025 280.999939,1.000012 
	C280.999939,74.999962 280.999939,148.999924 280.999969,222.999939 
	C252.166672,223.000000 223.333328,223.000000 194.000000,223.000000 
M103.659081,162.810303 
	C104.907677,161.113449 107.059204,159.453064 107.129700,157.708603 
	C107.190102,156.213989 105.158157,153.843964 103.537483,153.239502 
	C100.322510,152.040466 99.057175,150.100403 99.057465,146.922653 
	C99.060074,118.445511 99.062836,89.968369 99.050835,61.491226 
	C99.049507,58.342766 100.337502,56.453716 103.313736,54.932495 
	C105.259506,53.937977 106.350761,51.271622 107.824768,49.354111 
	C105.854462,47.925579 103.911697,45.305069 101.909454,45.258804 
	C87.096466,44.916512 72.268753,44.950260 57.454041,45.262573 
	C55.526905,45.303200 52.678120,47.209675 51.960022,48.953503 
	C50.699825,52.013763 52.995800,53.769535 55.889297,55.292019 
	C57.792023,56.293194 59.979454,59.021172 59.997795,60.994843 
	C60.263939,89.635559 60.265598,118.280205 60.014172,146.921127 
	C59.996510,148.932770 57.928364,151.705673 56.051132,152.738373 
	C53.262356,154.272522 51.195797,155.659286 51.796112,159.064026 
	C52.448631,162.764801 55.450157,162.979385 58.340473,162.982178 
	C73.161110,162.996445 87.981812,162.944077 103.659081,162.810303 
M109.121918,124.448074 
	C111.560867,131.685181 113.874573,138.968018 116.493942,146.139221 
	C117.721115,149.498947 117.299232,151.542084 114.007881,153.525848 
	C112.483871,154.444412 111.027893,157.560913 111.483940,159.108368 
	C111.964874,160.740311 114.742416,162.738495 116.550316,162.772278 
	C131.870148,163.058594 147.200104,163.056259 162.519608,162.759033 
	C164.255554,162.725357 166.768692,160.634659 167.385574,158.939026 
	C167.843506,157.680328 166.011658,155.369064 164.843643,153.790024 
	C163.111404,151.448166 160.281815,149.646881 159.273941,147.082993 
	C150.832748,125.609619 142.652908,104.032547 134.580597,82.417145 
	C134.012054,80.894745 134.332214,78.415939 135.247437,77.064949 
	C141.344894,68.064377 147.813965,59.499722 158.836090,55.687340 
	C160.684052,55.048157 162.638824,51.321651 162.426956,49.236858 
	C162.267853,47.671337 158.757431,45.344810 156.664703,45.263237 
	C146.185608,44.854759 135.676743,44.906002 125.192131,45.235256 
	C123.390289,45.291843 120.380562,47.311684 120.204285,48.711227 
	C119.971771,50.557259 121.467316,53.555580 123.124161,54.546127 
	C131.071136,59.297218 132.396530,63.244190 127.310654,70.967537 
	C122.920998,77.633614 118.769867,84.624489 113.394051,90.436546 
	C103.853661,100.751122 102.723412,111.563622 109.121918,124.448074 
M234.377563,124.575775 
	C232.521149,123.388390 230.698639,121.241577 228.802643,121.174606 
	C218.983551,120.827751 209.144775,120.935875 199.314758,121.049286 
	C195.360611,121.094902 193.106445,123.400902 193.045410,127.351875 
	C192.927017,135.015182 192.959198,142.682007 193.026184,150.346527 
	C193.062866,154.542831 195.301010,156.921112 199.512497,156.961685 
	C209.176315,157.054794 218.842316,157.057495 228.506058,156.960114 
	C232.719482,156.917648 234.971207,154.521332 234.969452,150.328125 
	C234.965942,142.003860 234.823120,133.679657 234.377563,124.575775 
z"/>
<path fill="#020202" opacity="1.000000" stroke="none" 
	d="
M103.230789,162.862671 
	C87.981812,162.944077 73.161110,162.996445 58.340473,162.982178 
	C55.450157,162.979385 52.448631,162.764801 51.796112,159.064026 
	C51.195797,155.659286 53.262356,154.272522 56.051132,152.738373 
	C57.928364,151.705673 59.996510,148.932770 60.014172,146.921127 
	C60.265598,118.280205 60.263939,89.635559 59.997795,60.994843 
	C59.979454,59.021172 57.792023,56.293194 55.889297,55.292019 
	C52.995800,53.769535 50.699825,52.013763 51.960022,48.953503 
	C52.678120,47.209675 55.526905,45.303200 57.454041,45.262573 
	C72.268753,44.950260 87.096466,44.916512 101.909454,45.258804 
	C103.911697,45.305069 105.854462,47.925579 107.824768,49.354111 
	C106.350761,51.271622 105.259506,53.937977 103.313736,54.932495 
	C100.337502,56.453716 99.049507,58.342766 99.050835,61.491226 
	C99.062836,89.968369 99.060074,118.445511 99.057465,146.922653 
	C99.057175,150.100403 100.322510,152.040466 103.537483,153.239502 
	C105.158157,153.843964 107.190102,156.213989 107.129700,157.708603 
	C107.059204,159.453064 104.907677,161.113449 103.230789,162.862671 
z"/>
<path fill="#020202" opacity="1.000000" stroke="none" 
	d="
M109.034485,124.060822 
	C102.723412,111.563622 103.853661,100.751122 113.394051,90.436546 
	C118.769867,84.624489 122.920998,77.633614 127.310654,70.967537 
	C132.396530,63.244190 131.071136,59.297218 123.124161,54.546127 
	C121.467316,53.555580 119.971771,50.557259 120.204285,48.711227 
	C120.380562,47.311684 123.390289,45.291843 125.192131,45.235256 
	C135.676743,44.906002 146.185608,44.854759 156.664703,45.263237 
	C158.757431,45.344810 162.267853,47.671337 162.426956,49.236858 
	C162.638824,51.321651 160.684052,55.048157 158.836090,55.687340 
	C147.813965,59.499722 141.344894,68.064377 135.247437,77.064949 
	C134.332214,78.415939 134.012054,80.894745 134.580597,82.417145 
	C142.652908,104.032547 150.832748,125.609619 159.273941,147.082993 
	C160.281815,149.646881 163.111404,151.448166 164.843643,153.790024 
	C166.011658,155.369064 167.843506,157.680328 167.385574,158.939026 
	C166.768692,160.634659 164.255554,162.725357 162.519608,162.759033 
	C147.200104,163.056259 131.870148,163.058594 116.550316,162.772278 
	C114.742416,162.738495 111.964874,160.740311 111.483940,159.108368 
	C111.027893,157.560913 112.483871,154.444412 114.007881,153.525848 
	C117.299232,151.542084 117.721115,149.498947 116.493942,146.139221 
	C113.874573,138.968018 111.560867,131.685181 109.034485,124.060822 
z"/>
<path fill="#DE8344" opacity="1.000000" stroke="none" 
	d="
M234.557739,124.965607 
	C234.823120,133.679657 234.965942,142.003860 234.969452,150.328125 
	C234.971207,154.521332 232.719482,156.917648 228.506058,156.960114 
	C218.842316,157.057495 209.176315,157.054794 199.512497,156.961685 
	C195.301010,156.921112 193.062866,154.542831 193.026184,150.346527 
	C192.959198,142.682007 192.927017,135.015182 193.045410,127.351875 
	C193.106445,123.400902 195.360611,121.094902 199.314758,121.049286 
	C209.144775,120.935875 218.983551,120.827751 228.802643,121.174606 
	C230.698639,121.241577 232.521149,123.388390 234.557739,124.965607 
z"/>
</svg>